<svg xmlns="http://www.w3.org/2000/svg" width="414.018" height="438.391" viewBox="0 0 109.542 115.991"><g stroke="#1a1a1a" fill="none"><path d="M54.994 31.68V12.403h33.451v19.844" stroke-width="4"/><path d="M103.753 32.543l-7.857-30.09L75.153 8.01l1.013 3.78M62.1 31.7l6.66-11.537 15.353 8.864-1.893 3.279M41.928 31.938L54.93 19.291" stroke-width="4"/><g transform="translate(-47.456 -10.912)" stroke-width="4"><path style="mix-blend-mode:normal" d="M48.376 31.805s17.62 4.925 22.718 11.76C81.884 58.03 81.25 96.746 81.25 96.746l59.868-.529 13.88-51.803-70.54-.85" stroke-linejoin="round"/><path d="M90.638 96.718l-7.517 13.664h53.988" stroke-linejoin="round"/><ellipse cx="128.119" cy="118.219" rx="7.114" ry="6.684" stroke-linecap="round"/><ellipse cx="91.819" cy="117.831" rx="7.114" ry="6.684" stroke-linecap="round"/></g><path d="M33.786 46.02h66.436M35.983 59.472h58.2M39.002 72.1H90.34" stroke-width="1.165"/></g></svg>